<?xml version="1.0" encoding="UTF-8" standalone="no"?>
<!-- Generator: Adobe Illustrator 17.0.2, SVG Export Plug-In . SVG Version: 6.00 Build 0)  -->

<svg
   xmlns:dc="http://purl.org/dc/elements/1.1/"
   xmlns:cc="http://creativecommons.org/ns#"
   xmlns:rdf="http://www.w3.org/1999/02/22-rdf-syntax-ns#"
   xmlns:svg="http://www.w3.org/2000/svg"
   xmlns="http://www.w3.org/2000/svg"
   xmlns:sodipodi="http://sodipodi.sourceforge.net/DTD/sodipodi-0.dtd"
   xmlns:inkscape="http://www.inkscape.org/namespaces/inkscape"
   version="1.1"
   id="Capa_1"
   x="0px"
   y="0px"
   width="64px"
   height="64px"
   viewBox="0 0 64 64"
   enable-background="new 0 0 64 64"
   xml:space="preserve"
   inkscape:version="0.48.4 r9943 custom"
   sodipodi:docname="baby29 (1).svg"><metadata
   id="metadata3047"><rdf:RDF><cc:Work
       rdf:about=""><dc:format>image/svg+xml</dc:format><dc:type
         rdf:resource="http://purl.org/dc/dcmitype/StillImage" /><dc:title></dc:title></cc:Work></rdf:RDF></metadata><defs
   id="defs3045" /><sodipodi:namedview
   pagecolor="#ffffff"
   bordercolor="#666666"
   borderopacity="1"
   objecttolerance="10"
   gridtolerance="10"
   guidetolerance="10"
   inkscape:pageopacity="0"
   inkscape:pageshadow="2"
   inkscape:window-width="1237"
   inkscape:window-height="738"
   id="namedview3043"
   showgrid="false"
   showguides="true"
   inkscape:guide-bbox="true"
   inkscape:zoom="8.265625"
   inkscape:cx="23.168242"
   inkscape:cy="32"
   inkscape:window-x="138"
   inkscape:window-y="37"
   inkscape:window-maximized="0"
   inkscape:current-layer="Capa_1" />
<path
   d="M2.377,52.549c0.045,0.124,0.11,0.24,0.195,0.35l6.052,6.568h24.877v-4.428l4.081,4.428h24.877V34.809l-0.09-0.5h-0.234  c-0.032-0.038-0.066-0.073-0.102-0.106l-6.055-5.596l-0.074-0.059c-0.108-0.085-0.233-0.155-0.407-0.219  c-0.119-0.039-0.244-0.063-0.276-0.052l-14.72-0.011V8.051l-0.089-0.5h-0.234c-0.032-0.038-0.066-0.073-0.102-0.106l-6.055-5.596  l-0.077-0.061C33.835,1.702,33.71,1.633,33.54,1.57c-0.119-0.039-0.242-0.062-0.274-0.052L9.292,1.5l0.004,23.87  c0.004,0.125,0.025,0.249,0.081,0.421c0.045,0.123,0.109,0.238,0.195,0.35l1.957,2.124l-9.237-0.007l0.004,23.87  C2.3,52.253,2.321,52.376,2.377,52.549z M17.217,7.551l-3.401-3.4h18.79l3.68,3.4H17.217z M39.951,56.816V36.959h19.857v19.857  H39.951z M17.969,28.27V17.867h0.025v-7.666h19.857v7.666h0.025v10.396v0.495v0.5v0.65v0.5v0.15h-3.158H34.01h-1.759H31.75h-0.5  h-2.116h-0.737h-0.741h-0.954h-0.737h-7.996v-0.15v-0.5v-0.636v-0.514V28.27z M39.174,34.309l-1.6-1.6h2.926v-1.801h14.063  l3.679,3.4H39.174z M30.851,36.959v19.857H10.993V36.959H30.851z M15.624,32.709h11.931l1.731,1.6H10.217l-3.401-3.4h7.149  L15.624,32.709z M33.167,34.298v-1.589v-0.5V32l0.182,0.209l0.437,0.5l3.881,4.441v19.1l-4.166-4.657l-0.334-0.373V34.298z   M11.167,5l4.5,5.15v18.118v0.49v0.492l-0.44-0.492l-0.439-0.49l-3.621-4.048V5z M8.667,37.15v19.1l-4.5-5.03V32L8.667,37.15z"
   id="path3035"
   style="fill:#1672d0;fill-opacity:1" />
<path
   d="M20.723,27.594c0.214,0.106,0.442,0.157,0.667,0.157c0.551,0,1.082-0.305,1.344-0.833l1.195-2.402h8.422l1.195,2.402  c0.262,0.527,0.793,0.833,1.344,0.833c0.225,0,0.453-0.051,0.667-0.157c0.742-0.369,1.044-1.27,0.675-2.011l-3.838-7.716  l-2.911-5.852c-0.006-0.012-0.015-0.022-0.021-0.034c-0.026-0.049-0.057-0.093-0.087-0.138c-0.025-0.037-0.048-0.075-0.077-0.109  c-0.032-0.039-0.068-0.073-0.104-0.108c-0.034-0.034-0.067-0.069-0.105-0.1c-0.036-0.029-0.075-0.053-0.113-0.079  c-0.044-0.029-0.087-0.059-0.134-0.085c-0.012-0.006-0.022-0.016-0.034-0.022c-0.03-0.015-0.062-0.022-0.094-0.035  c-0.048-0.02-0.095-0.04-0.144-0.054c-0.047-0.014-0.095-0.024-0.144-0.033c-0.047-0.009-0.094-0.018-0.141-0.023  c-0.048-0.005-0.097-0.005-0.146-0.005c-0.049,0-0.097,0-0.146,0.005c-0.048,0.005-0.095,0.014-0.142,0.023  c-0.048,0.009-0.095,0.019-0.142,0.033c-0.05,0.015-0.1,0.036-0.149,0.056c-0.029,0.012-0.06,0.019-0.089,0.033  c-0.012,0.006-0.021,0.014-0.032,0.02c-0.051,0.027-0.097,0.059-0.144,0.091c-0.035,0.024-0.071,0.046-0.104,0.073  c-0.041,0.033-0.076,0.071-0.113,0.108c-0.033,0.033-0.067,0.065-0.097,0.101c-0.03,0.036-0.054,0.076-0.08,0.114  c-0.03,0.044-0.059,0.087-0.085,0.135c-0.006,0.012-0.015,0.022-0.021,0.034l-2.911,5.852l-3.838,7.716  C19.679,26.325,19.981,27.225,20.723,27.594z M28.14,16.052l0.903,1.816l1.815,3.65h-5.437l1.816-3.65L28.14,16.052z"
   id="path3037"
   style="fill:#1672d0;fill-opacity:1" />
<path
   d="M18.387,55.198h3.446c3.009,0,5.457-2.448,5.457-5.457c0-2.025-1.112-3.792-2.754-4.734c0.497-0.726,0.79-1.602,0.79-2.547  c0-2.493-2.028-4.521-4.522-4.521h-2.417c-1.068,0-1.965,0.704-2.279,1.668c-0.081,0.185-0.128,0.388-0.128,0.603v0.136v4.23v2.115  v6.101v0.079c0,0.118,0.017,0.231,0.042,0.341C16.223,54.338,17.204,55.198,18.387,55.198z M21.833,52.198H18.98v-4.914h2.853  c1.355,0,2.457,1.102,2.457,2.457C24.29,51.096,23.188,52.198,21.833,52.198z M22.326,42.46c0,0.839-0.683,1.522-1.522,1.522H18.98  v-3.043h1.824C21.644,40.939,22.326,41.622,22.326,42.46z"
   id="path3039"
   style="fill:#1672d0;fill-opacity:1" />
<path
   d="M54.849,50.39c-0.977,0.921-2.255,1.428-3.598,1.428c-2.894,0-5.249-2.354-5.249-5.249c0-2.895,2.354-5.249,5.249-5.249  c1.285,0,2.522,0.469,3.482,1.321c0.62,0.55,1.568,0.494,2.118-0.126c0.55-0.62,0.493-1.568-0.126-2.118  c-1.51-1.339-3.454-2.077-5.473-2.077c-4.548,0-8.249,3.701-8.249,8.249s3.7,8.249,8.249,8.249c2.111,0,4.12-0.797,5.656-2.244  c0.603-0.568,0.631-1.518,0.063-2.121C56.402,49.851,55.454,49.821,54.849,50.39z"
   id="path3041"
   style="fill:#1672d0;fill-opacity:1" />
</svg>